<mxfile host="65bd71144e">
    <diagram id="vLQ2C9DQyY8QtarYVfvH" name="Page-1">
        <mxGraphModel dx="2026" dy="2073" grid="1" gridSize="10" guides="1" tooltips="1" connect="1" arrows="1" fold="1" page="1" pageScale="1" pageWidth="850" pageHeight="1100" math="0" shadow="0">
            <root>
                <mxCell id="0"/>
                <mxCell id="1" parent="0"/>
                <mxCell id="2" value="Compiled WebAssembly Module&lt;br&gt;Runtime::ModuleRef" style="whiteSpace=wrap;html=1;" parent="1" vertex="1">
                    <mxGeometry x="308" y="300" width="204" height="60" as="geometry"/>
                </mxCell>
                <mxCell id="5" style="edgeStyle=none;html=1;entryX=0;entryY=0;entryDx=0;entryDy=0;" parent="1" source="3" target="2" edge="1">
                    <mxGeometry relative="1" as="geometry"/>
                </mxCell>
                <mxCell id="3" value="Precompiled wasm" style="text;html=1;resizable=0;autosize=1;align=center;verticalAlign=middle;points=[];fillColor=none;strokeColor=none;rounded=0;" parent="1" vertex="1">
                    <mxGeometry x="140" y="200" width="120" height="20" as="geometry"/>
                </mxCell>
                <mxCell id="25" value="Lex&lt;br&gt;Parse" style="edgeStyle=none;html=1;exitX=0.5;exitY=1;exitDx=0;exitDy=0;" parent="1" source="31" target="24" edge="1">
                    <mxGeometry relative="1" as="geometry">
                        <mxPoint x="320" y="-120" as="sourcePoint"/>
                    </mxGeometry>
                </mxCell>
                <mxCell id="10" value="Resolve imports (from ABI)" style="edgeStyle=none;html=1;" parent="1" source="2" target="9" edge="1">
                    <mxGeometry relative="1" as="geometry">
                        <mxPoint x="415" y="470" as="sourcePoint"/>
                    </mxGeometry>
                </mxCell>
                <mxCell id="15" style="edgeStyle=none;html=1;endArrow=classic;endFill=1;" parent="1" source="9" target="14" edge="1">
                    <mxGeometry relative="1" as="geometry"/>
                </mxCell>
                <mxCell id="16" value="Instantiate with resolved imports" style="edgeLabel;html=1;align=center;verticalAlign=middle;resizable=0;points=[];" parent="15" vertex="1" connectable="0">
                    <mxGeometry x="-0.1667" y="1" relative="1" as="geometry">
                        <mxPoint as="offset"/>
                    </mxGeometry>
                </mxCell>
                <mxCell id="9" value="Module + resolved imports" style="whiteSpace=wrap;html=1;" parent="1" vertex="1">
                    <mxGeometry x="310" y="430" width="200" height="60" as="geometry"/>
                </mxCell>
                <mxCell id="13" style="edgeStyle=none;html=1;endArrow=none;endFill=0;dashed=1;" parent="1" source="11" edge="1">
                    <mxGeometry relative="1" as="geometry">
                        <mxPoint x="500" y="395" as="targetPoint"/>
                    </mxGeometry>
                </mxCell>
                <mxCell id="11" value="Link ABI (bare | emscripten | wasi)&lt;br&gt;&lt;span style=&quot;font-size: 11px&quot;&gt;(function, table, memory, global, exception type)&lt;/span&gt;" style="whiteSpace=wrap;html=1;" parent="1" vertex="1">
                    <mxGeometry x="608" y="345" width="220" height="100" as="geometry"/>
                </mxCell>
                <mxCell id="21" style="edgeStyle=none;html=1;endArrow=classic;endFill=1;" parent="1" source="14" target="20" edge="1">
                    <mxGeometry relative="1" as="geometry"/>
                </mxCell>
                <mxCell id="14" value="Instance" style="whiteSpace=wrap;html=1;" parent="1" vertex="1">
                    <mxGeometry x="350" y="550" width="120" height="60" as="geometry"/>
                </mxCell>
                <mxCell id="20" value="Execute" style="text;html=1;align=center;verticalAlign=middle;resizable=0;points=[];autosize=1;strokeColor=none;fillColor=none;" parent="1" vertex="1">
                    <mxGeometry x="380" y="650" width="60" height="20" as="geometry"/>
                </mxCell>
                <mxCell id="28" style="edgeStyle=none;html=1;entryX=1;entryY=0;entryDx=0;entryDy=0;" parent="1" source="22" target="2" edge="1">
                    <mxGeometry relative="1" as="geometry"/>
                </mxCell>
                <mxCell id="22" value="Binary wasm module" style="text;html=1;align=center;verticalAlign=middle;resizable=0;points=[];autosize=1;strokeColor=none;fillColor=none;" parent="1" vertex="1">
                    <mxGeometry x="500" y="220" width="130" height="20" as="geometry"/>
                </mxCell>
                <mxCell id="26" style="edgeStyle=none;html=1;entryX=0.5;entryY=0;entryDx=0;entryDy=0;exitX=0.5;exitY=1;exitDx=0;exitDy=0;" parent="1" source="29" target="2" edge="1">
                    <mxGeometry relative="1" as="geometry"/>
                </mxCell>
                <mxCell id="27" value="Compile to object code&lt;br&gt;(LLVM backend)" style="edgeLabel;html=1;align=center;verticalAlign=middle;resizable=0;points=[];" parent="26" vertex="1" connectable="0">
                    <mxGeometry x="-0.1789" y="1" relative="1" as="geometry">
                        <mxPoint y="-1" as="offset"/>
                    </mxGeometry>
                </mxCell>
                <mxCell id="30" value="Emit module&lt;br&gt;(LLVM frontend)" style="edgeStyle=none;html=1;entryX=0.5;entryY=0;entryDx=0;entryDy=0;" edge="1" parent="1" source="24" target="29">
                    <mxGeometry relative="1" as="geometry"/>
                </mxCell>
                <mxCell id="24" value="Parsed wasm&lt;br&gt;IR::Module" style="whiteSpace=wrap;html=1;" parent="1" vertex="1">
                    <mxGeometry x="350" y="-50" width="120" height="60" as="geometry"/>
                </mxCell>
                <mxCell id="29" value="LLVM module&lt;br&gt;llvm::module" style="whiteSpace=wrap;html=1;" vertex="1" parent="1">
                    <mxGeometry x="350" y="100" width="120" height="60" as="geometry"/>
                </mxCell>
                <mxCell id="31" value="Wast" style="whiteSpace=wrap;html=1;" vertex="1" parent="1">
                    <mxGeometry x="350" y="-190" width="120" height="60" as="geometry"/>
                </mxCell>
                <mxCell id="36" style="edgeStyle=none;html=1;entryX=0;entryY=0.5;entryDx=0;entryDy=0;endArrow=none;endFill=0;dashed=1;" edge="1" parent="1" source="34" target="24">
                    <mxGeometry relative="1" as="geometry"/>
                </mxCell>
                <mxCell id="34" value="&lt;b&gt;&lt;u&gt;IR::Module&lt;/u&gt;&lt;/b&gt; &lt;b&gt;(&lt;/b&gt;definitions only)&lt;br&gt;&lt;br&gt;feature specification&lt;br&gt;&lt;br&gt;types&lt;br&gt;functions&lt;br&gt;tables&lt;br&gt;memories&lt;br&gt;globals&lt;br&gt;exception types&lt;br&gt;&lt;br&gt;imports&lt;br&gt;exports&lt;br&gt;&lt;br&gt;data segments&lt;br&gt;element segments&lt;br&gt;custom sections&lt;br&gt;&lt;br&gt;start function" style="shape=process;whiteSpace=wrap;html=1;backgroundOutline=1;align=left;" vertex="1" parent="1">
                    <mxGeometry x="-240" y="-187.5" width="280" height="335" as="geometry"/>
                </mxCell>
                <mxCell id="38" style="edgeStyle=none;html=1;dashed=1;endArrow=none;endFill=0;" edge="1" parent="1" source="37" target="2">
                    <mxGeometry relative="1" as="geometry"/>
                </mxCell>
                <mxCell id="37" value="&lt;u style=&quot;font-weight: bold&quot;&gt;Runtime::ModuleRef&lt;/u&gt;&lt;br&gt;&lt;br&gt;parsed wasm code (IR::Module)&lt;br&gt;compiled object code" style="shape=process;whiteSpace=wrap;html=1;backgroundOutline=1;align=left;" vertex="1" parent="1">
                    <mxGeometry x="-240" y="282.5" width="280" height="95" as="geometry"/>
                </mxCell>
                <mxCell id="40" style="edgeStyle=none;html=1;dashed=1;endArrow=none;endFill=0;" edge="1" parent="1" source="39" target="14">
                    <mxGeometry relative="1" as="geometry"/>
                </mxCell>
                <mxCell id="39" value="&lt;u&gt;&lt;b&gt;Instance&lt;/b&gt;&lt;/u&gt; (actual code)&lt;br&gt;&lt;br&gt;id&lt;br&gt;export map, exports&lt;br&gt;&lt;br&gt;functions&lt;br&gt;tables&lt;br&gt;memories&lt;br&gt;globals&lt;br&gt;exception types&lt;br&gt;&lt;br&gt;start function&lt;br&gt;&lt;br&gt;(more)" style="shape=process;whiteSpace=wrap;html=1;backgroundOutline=1;align=left;" vertex="1" parent="1">
                    <mxGeometry x="-240" y="460" width="280" height="240" as="geometry"/>
                </mxCell>
            </root>
        </mxGraphModel>
    </diagram>
</mxfile>